<?xml version="1.0" encoding="UTF-8" standalone="no"?>
<!-- Created with Inkscape (http://www.inkscape.org/) -->

<svg
   xmlns:dc="http://purl.org/dc/elements/1.1/"
   xmlns:cc="http://creativecommons.org/ns#"
   xmlns:rdf="http://www.w3.org/1999/02/22-rdf-syntax-ns#"
   xmlns:svg="http://www.w3.org/2000/svg"
   xmlns="http://www.w3.org/2000/svg"
   xmlns:sodipodi="http://sodipodi.sourceforge.net/DTD/sodipodi-0.dtd"
   xmlns:inkscape="http://www.inkscape.org/namespaces/inkscape"
   width="827.79712"
   height="281.74066"
   viewBox="0 0 219.02131 74.543885"
   version="1.1"
   id="svg885"
   inkscape:version="0.92.5 (2060ec1f9f, 2020-04-08)"
   sodipodi:docname="drawing.svg">
  <defs
     id="defs879" />
  <sodipodi:namedview
     id="base"
     pagecolor="#ffffff"
     bordercolor="#666666"
     borderopacity="1.0"
     inkscape:pageopacity="0.0"
     inkscape:pageshadow="2"
     inkscape:zoom="3.959798"
     inkscape:cx="626.6765"
     inkscape:cy="147.31685"
     inkscape:document-units="mm"
     inkscape:current-layer="layer1"
     showgrid="false"
     inkscape:window-width="1848"
     inkscape:window-height="1016"
     inkscape:window-x="72"
     inkscape:window-y="27"
     inkscape:window-maximized="1"
     units="px" />
  <metadata
     id="metadata882">
    <rdf:RDF>
      <cc:Work
         rdf:about="">
        <dc:format>image/svg+xml</dc:format>
        <dc:type
           rdf:resource="http://purl.org/dc/dcmitype/StillImage" />
        <dc:title />
      </cc:Work>
    </rdf:RDF>
  </metadata>
  <g
     inkscape:label="Layer 1"
     inkscape:groupmode="layer"
     id="layer1"
     transform="translate(-22.277423,-150.06928)">
    <rect
       style="opacity:0;fill:#2a4475;fill-opacity:1;stroke:#ae9a24;stroke-width:2;stroke-miterlimit:4;stroke-dasharray:none;stroke-opacity:1"
       id="rect5134"
       width="50.648811"
       height="39.309525"
       x="3.7797618"
       y="55.095238" />
    <path
       style="fill:#7ab0e2;fill-opacity:1;stroke:none;stroke-width:0.26458332px;stroke-linecap:butt;stroke-linejoin:miter;stroke-opacity:1"
       d="m 154.74346,206.87248 c 30.72379,-3.5172 32.89464,-12.48383 56.40094,-2.82941 0,0 -13.18272,-35.16638 -41.87521,-25.23291 -54.84203,21.22916 -58.49493,-28.74088 -58.49493,-28.74088 -13.436535,17.23297 7.6242,57.99165 43.9692,56.8032 z"
       id="path5184-3"
       inkscape:connector-curvature="0"
       sodipodi:nodetypes="ccccc"
       inkscape:export-xdpi="96"
       inkscape:export-ydpi="96" />
    <path
       style="fill:#2a4475;fill-opacity:1;stroke:none;stroke-width:0.28547606px;stroke-linecap:butt;stroke-linejoin:miter;stroke-opacity:1"
       d="m 80.135185,179.54133 c 0,0 10.95805,-18.35759 35.012305,-18.04644 24.05428,0.31115 29.1324,20.84677 68.95556,19.91333 39.82316,-0.93344 57.66341,-14.06839 57.66341,-14.06839 0,0 -2.24304,15.36285 -26.41557,30.7241 -14.21767,9.03511 -46.33428,18.39797 -77.75274,-7.32135 -33.8989,-27.74981 -57.462965,-11.20125 -57.462965,-11.20125 z"
       id="path5182"
       inkscape:connector-curvature="0"
       sodipodi:nodetypes="csscssc"
       inkscape:export-xdpi="96"
       inkscape:export-ydpi="96" />
    <path
       style="fill:#2a4475;fill-opacity:1;stroke:none;stroke-width:0.30534977px;stroke-linecap:butt;stroke-linejoin:miter;stroke-opacity:1"
       d="m 22.277423,224.61316 c 0,0 21.29696,-42.12649 77.169142,-35.73805 55.872205,6.38847 73.551275,-29.9755 73.551275,-29.9755 0,0 14.78285,63.9895 -99.208305,50.98719 -36.930611,-4.21245 -51.512112,14.72636 -51.512112,14.72636 z"
       id="path5186"
       inkscape:connector-curvature="0"
       sodipodi:nodetypes="cscsc"
       inkscape:export-xdpi="96"
       inkscape:export-ydpi="96" />
    <path
       style="fill:#7ab0e2;fill-opacity:1;stroke:none;stroke-width:0.26458332px;stroke-linecap:butt;stroke-linejoin:miter;stroke-opacity:1"
       d="m 123.95665,215.43445 c 27.88153,-13.37694 34.49704,-28.69273 59.33385,-32.87415 28.28817,-4.76248 44.90129,5.66098 44.90129,5.66098 0,0 -41.49539,-53.34367 -99.69155,-4.05736 -44.876345,38.00575 -64.679245,-8.01809 -64.679245,-8.01809 -7.057891,20.68095 26.18038,52.30438 60.135655,39.28862 z"
       id="path5184"
       inkscape:connector-curvature="0"
       sodipodi:nodetypes="cscscc"
       inkscape:export-xdpi="96"
       inkscape:export-ydpi="96" />
    <path
       style="fill:#f5f5f5;fill-opacity:1;stroke:none;stroke-width:0.25995469px;stroke-linecap:butt;stroke-linejoin:miter;stroke-opacity:1"
       d="m 94.289725,177.5305 c 0,0 21.565835,32.25645 76.110045,35.81412 39.88682,2.60164 57.79202,-25.12334 57.79202,-25.12334 0,0 -41.02202,31.80508 -133.902065,-10.69078 z"
       id="path5188"
       inkscape:connector-curvature="0"
       sodipodi:nodetypes="cscc"
       inkscape:export-xdpi="96"
       inkscape:export-ydpi="96" />
  </g>
</svg>
